<svg xmlns="http://www.w3.org/2000/svg" viewBox="0 0 64 64" aria-labelledby="title"
aria-describedby="desc" role="img" xmlns:xlink="http://www.w3.org/1999/xlink">
  <title>Gear</title>
  <desc>A line styled icon from Orion Icon Library.</desc>
  <circle data-name="layer2"
  cx="32" cy="32" r="14" fill="none" stroke="#202020" stroke-linecap="round"
  stroke-miterlimit="10" stroke-width="2" stroke-linejoin="round"></circle>
  <path data-name="layer1" d="M58.906 27a3.127 3.127 0 0 1-2.977-2.258 24.834 24.834 0 0 0-1.875-4.519 3.131 3.131 0 0 1 .505-3.71 3.1 3.1 0 0 0 0-4.376l-2.693-2.698a3.1 3.1 0 0 0-4.376 0 3.131 3.131 0 0 1-3.71.505 24.834 24.834 0 0 0-4.519-1.875A3.127 3.127 0 0 1 37 5.094 3.1 3.1 0 0 0 33.906 2h-3.812A3.1 3.1 0 0 0 27 5.094a3.127 3.127 0 0 1-2.258 2.977 24.834 24.834 0 0 0-4.519 1.875 3.131 3.131 0 0 1-3.71-.505 3.1 3.1 0 0 0-4.376 0l-2.695 2.7a3.1 3.1 0 0 0 0 4.376 3.131 3.131 0 0 1 .505 3.71 24.834 24.834 0 0 0-1.875 4.519A3.127 3.127 0 0 1 5.094 27 3.1 3.1 0 0 0 2 30.094v3.811A3.1 3.1 0 0 0 5.094 37a3.127 3.127 0 0 1 2.977 2.258 24.833 24.833 0 0 0 1.875 4.519 3.131 3.131 0 0 1-.505 3.71 3.1 3.1 0 0 0 0 4.376l2.7 2.7a3.1 3.1 0 0 0 4.376 0 3.131 3.131 0 0 1 3.71-.505 24.834 24.834 0 0 0 4.519 1.875A3.127 3.127 0 0 1 27 58.906 3.1 3.1 0 0 0 30.094 62h3.811A3.1 3.1 0 0 0 37 58.906a3.127 3.127 0 0 1 2.258-2.977 24.834 24.834 0 0 0 4.519-1.875 3.131 3.131 0 0 1 3.71.505 3.1 3.1 0 0 0 4.376 0l2.7-2.695a3.1 3.1 0 0 0 0-4.376 3.131 3.131 0 0 1-.505-3.71 24.833 24.833 0 0 0 1.875-4.519A3.127 3.127 0 0 1 58.906 37 3.1 3.1 0 0 0 62 33.906v-3.812A3.1 3.1 0 0 0 58.906 27z"
  fill="none" stroke="#202020" stroke-linecap="round" stroke-miterlimit="10"
  stroke-width="2" stroke-linejoin="round"></path>
</svg>